<?xml version="1.0" encoding="UTF-8"?>
<svg version="1.1" xmlns="http://www.w3.org/2000/svg" width="128" height="128">
<path d="M0 0 C1.53020456 -0.00457123 3.06040708 -0.00987957 4.59060669 -0.0158844 C7.78623838 -0.02477947 10.9816197 -0.02243443 14.17724609 -0.01245117 C18.24435107 -0.0009748 22.31058602 -0.02117024 26.37757683 -0.05036831 C29.53489547 -0.06883925 32.69200986 -0.06841622 35.84936905 -0.06273079 C37.34747664 -0.06257885 38.84559923 -0.06851587 40.34365463 -0.08102226 C51.85470889 -0.16359272 62.1488375 1.11054329 71.34765625 8.609375 C80.1588921 17.30884042 83.46467128 26.53347126 83.62629318 38.74033833 C83.63814534 40.9064459 83.63460714 43.07215328 83.62890625 45.23828125 C83.63347748 46.76848581 83.63878582 48.29868833 83.64479065 49.82888794 C83.65368572 53.02451963 83.65134068 56.21990095 83.64135742 59.41552734 C83.62988105 63.48263232 83.65007649 67.54886727 83.67927456 71.61585808 C83.6977455 74.77317672 83.69732247 77.93029111 83.69163704 81.0876503 C83.6914851 82.58575789 83.69742212 84.08388048 83.70992851 85.58193588 C83.79249897 97.09299014 82.51836296 107.38711875 75.01953125 116.5859375 C66.32006583 125.39717335 57.09543499 128.70295253 44.88856792 128.86457443 C42.72246035 128.87642659 40.55675297 128.87288839 38.390625 128.8671875 C36.86042044 128.87175873 35.33021792 128.87706707 33.80001831 128.8830719 C30.60438662 128.89196697 27.4090053 128.88962193 24.21337891 128.87963867 C20.14627393 128.8681623 16.08003898 128.88835774 12.01304817 128.91755581 C8.85572953 128.93602675 5.69861514 128.93560372 2.54125595 128.92991829 C1.04314836 128.92976635 -0.45497423 128.93570337 -1.95302963 128.94820976 C-13.46408389 129.03078022 -23.7582125 127.75664421 -32.95703125 120.2578125 C-41.7682671 111.55834708 -45.07404628 102.33371624 -45.23566818 90.12684917 C-45.24752034 87.9607416 -45.24398214 85.79503422 -45.23828125 83.62890625 C-45.24285248 82.09870169 -45.24816082 80.56849917 -45.25416565 79.03829956 C-45.26306072 75.84266787 -45.26071568 72.64728655 -45.25073242 69.45166016 C-45.23925605 65.38455518 -45.25945149 61.31832023 -45.28864956 57.25132942 C-45.3071205 54.09401078 -45.30669747 50.93689639 -45.30101204 47.7795372 C-45.3008601 46.28142961 -45.30679712 44.78330702 -45.31930351 43.28525162 C-45.40187397 31.77419736 -44.12773796 21.48006875 -36.62890625 12.28125 C-25.89856263 1.41304329 -14.62069545 -0.03847927 0 0 Z " fill="#7211C8" transform="translate(44.8046875,-0.43359375)"/>
<path d="M0 0 C1.16163666 -0.01354271 1.16163666 -0.01354271 2.34674072 -0.02735901 C3.98405098 -0.04184438 5.62141891 -0.050744 7.25878906 -0.05444336 C9.74385259 -0.06630235 12.22640047 -0.11546679 14.7109375 -0.16601562 C30.06271419 -0.32387899 30.06271419 -0.32387899 36.015625 5.37109375 C36.69496094 5.933125 37.37429687 6.49515625 38.07421875 7.07421875 C42.08530675 11.57390954 42.98848175 15.38600662 43.015625 21.37109375 C40.57694332 21.47907965 38.14303367 21.55835964 35.703125 21.62109375 C35.01283203 21.65460937 34.32253906 21.688125 33.61132812 21.72265625 C31.58984375 21.76171875 31.58984375 21.76171875 28.015625 21.37109375 C27.38140625 20.38109375 27.38140625 20.38109375 26.734375 19.37109375 C25.10112298 17.02627948 25.10112298 17.02627948 21.8293457 16.91699219 C20.54632568 16.93793945 19.26330566 16.95888672 17.94140625 16.98046875 C16.91565742 16.98895844 16.91565742 16.98895844 15.8691864 16.99761963 C13.68811601 17.01998559 11.50869747 17.0701761 9.328125 17.12109375 C7.84833105 17.14115875 6.3685113 17.15940953 4.88867188 17.17578125 C1.2637874 17.21984901 -2.36013256 17.28887553 -5.984375 17.37109375 C-6.03837236 18.82902259 -6.07716677 20.28752087 -6.109375 21.74609375 C-6.13257812 22.55820312 -6.15578125 23.3703125 -6.1796875 24.20703125 C-6.19807551 26.58451618 -6.19807551 26.58451618 -3.984375 28.37109375 C-1.23509001 28.67753307 -1.23509001 28.67753307 1.984375 28.64453125 C3.80195312 28.67546875 3.80195312 28.67546875 5.65625 28.70703125 C8.19785185 28.73275597 10.73953984 28.75117223 13.28125 28.76171875 C21.97820859 28.92685088 29.50120545 29.73206646 36.453125 35.3359375 C41.73459963 42.00379922 43.8833339 46.77797657 43.015625 55.37109375 C41.74706465 62.2674491 38.75828849 67.26615281 33.015625 71.37109375 C27.97149144 73.88355751 23.8394592 74.83817227 18.17578125 74.83984375 C17.44999374 74.84745728 16.72420624 74.8550708 15.97642517 74.86291504 C14.45119645 74.87365327 12.92589458 74.87659487 11.40063477 74.87207031 C9.0867889 74.87109739 6.7762595 74.91279388 4.46289062 74.95703125 C-3.31041014 75.02000525 -10.04663671 75.05251951 -15.984375 69.37109375 C-19.95596373 65.45447734 -22.93454294 61.44709082 -23.02734375 55.71875 C-23.01316406 54.94402344 -22.99898437 54.16929688 -22.984375 53.37109375 C-20.54569332 53.26310785 -18.11178367 53.18382786 -15.671875 53.12109375 C-14.98158203 53.08757812 -14.29128906 53.0540625 -13.58007812 53.01953125 C-11.55859375 52.98046875 -11.55859375 52.98046875 -7.984375 53.37109375 C-7.55108887 54.02964355 -7.11780273 54.68819336 -6.67138672 55.36669922 C-5.09220795 57.68449325 -5.09220795 57.68449325 -2.01342773 57.85693359 C-0.82692627 57.84871582 0.3595752 57.84049805 1.58203125 57.83203125 C3.5165918 57.82623047 3.5165918 57.82623047 5.49023438 57.8203125 C6.16078857 57.80790527 6.83134277 57.79549805 7.5222168 57.78271484 C9.57455981 57.74615726 11.62509948 57.74169579 13.67773438 57.7421875 C20.44983025 58.21528166 20.44983025 58.21528166 26.015625 55.37109375 C26.47902304 51.3157922 26.47902304 51.3157922 24.88891602 47.70068359 C22.16304017 45.76596186 20.04773021 46.01868173 16.73046875 46.03515625 C15.47685547 46.02226563 14.22324219 46.009375 12.93164062 45.99609375 C10.306629 45.99609375 7.68160476 46.00374199 5.05664062 46.01953125 C-2.95221151 45.92141361 -9.38779857 45.20997178 -15.984375 40.37109375 C-22.35059803 33.53854745 -23.35307052 28.08329791 -23.2578125 18.82421875 C-22.75738656 12.50455399 -20.13638999 9.25040941 -15.484375 5.05859375 C-10.4720422 0.90063586 -6.4851121 0.04688829 0 0 Z " fill="#FCFAFE" transform="translate(53.984375,26.62890625)"/>
</svg>
